<?xml version="1.0" encoding="UTF-8" standalone="no"?>
<svg
   xmlns:svg="http://www.w3.org/2000/svg"
   xmlns="http://www.w3.org/2000/svg"
   viewBox="0 0 800 800"
   height="800"
   width="800"
   xml:space="preserve"
   id="svg2"
   version="1.1">
   <defs id="defs6">
      <clipPath
          id="clipPath18"
          clipPathUnits="userSpaceOnUse">
         <path
            style="clip-rule:evenodd"
            id="path16"
            d="M 0,0 H 2480 V 3505 H 0 Z" />
       </clipPath>
       <clipPath
          id="clipPath54"
          clipPathUnits="userSpaceOnUse">
          <path
            style="clip-rule:evenodd"
            id="path52"
            d="M 116.66666,116.66666 H 2366.6667 V 3391.6667 H 116.66666 Z" />
       </clipPath>
       <clipPath
          id="clipPath68"
          clipPathUnits="userSpaceOnUse">
          <path
            style="clip-rule:evenodd"
            id="path66"
            d="M 116.66666,116.66666 H 2366.6667 V 3391.6667 H 116.66666 Z" />
       </clipPath>
       <clipPath
          id="clipPath80"
          clipPathUnits="userSpaceOnUse">
          <path
            style="clip-rule:evenodd"
            id="path78"
            d="M 1069.3287,1605.5197 H 2069.728 v 998.3148 H 1069.3287 Z" />
       </clipPath>
       <clipPath
          id="clipPath92"
          clipPathUnits="userSpaceOnUse">
          <path
            style="clip-rule:evenodd"
            id="path90"
            d="M 116.66666,116.66666 H 2366.6667 V 3391.6667 H 116.66666 Z" />
       </clipPath>
    </defs>
    <g transform="matrix(0.31999998,0,0,0.31999998,0,-321.27992)" id="g10">
       <g transform="translate(0,587.92931)" id="g62">
          <g clip-path="url(#clipPath68)" id="g64">
             <g transform="matrix(4.5,0,0,4.5,116.66666,629.16669)" id="g70">
                <path
                   id="path72"
                   style="fill:#454e53;fill-opacity:1;fill-rule:nonzero;stroke:none"
                   d="M 20.160536,280.22794 19.418604,479.80777 H 480.15869 l 1.11292,-199.57983 h -41.85617 l 1.02472,160.25323 -380.881459,0.68866 1.640636,-161.72195 z" />
             </g>
          </g>
       </g>
    <g
       transform="translate(0,587.92931)"
       id="g74">
       <g clip-path="url(#clipPath80)" id="g76">
       <g transform="matrix(4.5,0,0,4.5,-578.78339,195.11942)" id="g82">
         <path
             id="path84"
             style="fill:#0099ff;fill-opacity:1;fill-rule:nonzero;stroke:none"
             d="m 570.03217,327.96948 c 0,3.28964 -0.0807,6.57727 -0.24219,9.86292 -0.16144,3.28564 -0.40332,6.56537 -0.72577,9.83914 -0.32245,3.27374 -0.72504,6.5376 -1.2077,9.79159 -0.48273,3.25403 -1.04493,6.49424 -1.68671,9.72065 -0.64178,3.22641 -1.3623,6.43515 -2.16162,9.62619 -0.79926,3.19104 -1.67639,6.36053 -2.63129,9.50848 -0.95489,3.14798 -1.98651,6.2706 -3.09472,9.36792 -1.10828,3.09732 -2.29187,6.16559 -3.55072,9.2048 -1.25892,3.03922 -2.59162,6.04569 -3.99805,9.01947 -1.40656,2.97379 -2.88513,5.91126 -4.43579,8.81244 -1.55072,2.90116 -3.17169,5.76255 -4.86292,8.58417 -1.69122,2.82156 -3.45062,5.59998 -5.2782,8.33518 -1.82757,2.73523 -3.72119,5.42398 -5.68084,8.06622 -1.95966,2.64224 -3.98291,5.23483 -6.06977,7.77774 -2.08697,2.54288 -4.23498,5.03305 -6.44415,7.47052 -2.20917,2.43741 -4.47681,4.81918 -6.80292,7.14532 -2.32614,2.32608 -4.70791,4.59372 -7.14532,6.80289 -2.43747,2.2092 -4.92764,4.35724 -7.47052,6.44418 -2.54294,2.08689 -5.13553,4.11014 -7.7778,6.06977 -2.64225,1.95959 -5.331,3.85321 -8.0662,5.68084 -2.73519,1.82761 -5.51361,3.58704 -8.3352,5.27823 -2.82163,1.6912 -5.68301,3.31217 -8.58417,4.86286 -2.90121,1.55072 -5.83868,3.02932 -8.81244,4.43582 -2.97378,1.40649 -5.98028,2.7392 -9.01947,3.99805 -3.03921,1.25885 -6.10748,2.44244 -9.2048,3.55072 -3.09732,1.10821 -6.21994,2.13983 -9.36789,3.09472 -3.14798,0.9549 -6.3175,1.83203 -9.50854,2.63135 -3.19104,0.79932 -6.39975,1.51984 -9.62616,2.16162 -3.22638,0.64179 -6.46659,1.20404 -9.72059,1.68677 -3.25399,0.48273 -6.51785,0.88525 -9.79162,1.2077 -3.27377,0.32245 -6.55347,0.56433 -9.83914,0.72571 -3.28565,0.16144 -6.57328,0.24213 -9.86292,0.24219 -3.28964,-6e-5 -6.57727,-0.0807 -9.86291,-0.24213 -3.28565,-0.16144 -6.56537,-0.40332 -9.83915,-0.72577 -3.27377,-0.32245 -6.53768,-0.72497 -9.79171,-1.2077 -3.254,-0.48273 -6.4942,-1.04498 -9.72061,-1.68677 -3.22641,-0.64178 -6.43512,-1.3623 -9.62613,-2.16162 -3.19107,-0.79932 -6.36057,-1.67645 -9.50852,-2.63135 -3.14798,-0.95489 -6.27066,-1.98651 -9.36798,-3.09472 -3.09732,-1.10822 -6.16559,-2.29181 -9.20477,-3.55066 -3.03922,-1.25885 -6.04572,-2.59156 -9.01947,-3.99808 -2.97379,-1.40646 -5.91126,-2.88507 -8.81241,-4.43576 -2.90118,-1.55072 -5.76257,-3.17169 -8.58417,-4.86289 -2.82159,-1.69119 -5.6,-3.45062 -8.33523,-5.27825 -2.73522,-1.82761 -5.42395,-3.72123 -8.06618,-5.68085 -2.64224,-1.95963 -5.23482,-3.98288 -7.77773,-6.06977 -2.54292,-2.08691 -5.03309,-4.23495 -7.47053,-6.44415 -2.43744,-2.20917 -4.81922,-4.4768 -7.14531,-6.80292 -2.32613,-2.32611 -4.59377,-4.70788 -6.80292,-7.14532 -2.20918,-2.43744 -4.35722,-4.92761 -6.44414,-7.47052 -2.08691,-2.54294 -4.11018,-5.13553 -6.06979,-7.77777 -1.95961,-2.64224 -3.85323,-5.33099 -5.68085,-8.06619 -1.82762,-2.7352 -3.58702,-5.51361 -5.27821,-8.33521 -1.69121,-2.82162 -3.31216,-5.68301 -4.86288,-8.58417 -1.55073,-2.90121 -3.02933,-5.83868 -4.43583,-8.81247 -1.40649,-2.97378 -2.73918,-5.98025 -3.99806,-9.01947 -1.25888,-3.03921 -2.44244,-6.10748 -3.55069,-9.20477 -1.10823,-3.09732 -2.1398,-6.21997 -3.09472,-9.36792 -0.95493,-3.14798 -1.83205,-6.31747 -2.63137,-9.50851 -0.7993,-3.19104 -1.51983,-6.39975 -2.1616,-9.62616 -0.64177,-3.22641 -1.20401,-6.46662 -1.68671,-9.72061 -0.48268,-3.254 -0.88522,-6.51789 -1.20766,-9.79163 -0.32243,-3.27377 -0.56437,-6.5535 -0.7258,-9.83914 -0.16142,-3.28565 -0.24212,-6.57328 -0.24211,-9.86292 -1e-5,-3.28961 0.0807,-6.57724 0.24211,-9.86291 0.16143,-3.28568 0.40335,-6.56537 0.72579,-9.83914 0.32243,-3.27378 0.72499,-6.53766 1.20767,-9.79169 0.48268,-3.254 1.04492,-6.4942 1.68669,-9.72061 0.64177,-3.22641 1.36231,-6.43515 2.16161,-9.62616 0.79933,-3.19104 1.67645,-6.36054 2.63139,-9.50849 0.95491,-3.14798 1.98648,-6.27063 3.09471,-9.36795 1.10823,-3.09732 2.2918,-6.16559 3.55068,-9.20479 1.25889,-3.0392 2.59158,-6.0457 3.99806,-9.01948 1.40649,-2.97377 2.8851,-5.91126 4.43582,-8.81242 1.5507,-2.90119 3.17166,-5.76258 4.86287,-8.58419 1.69119,-2.82161 3.45059,-5.6 5.27821,-8.33522 1.82762,-2.73521 3.72124,-5.42395 5.68085,-8.06619 1.95962,-2.64224 3.98289,-5.23482 6.06981,-7.77771 2.08691,-2.54291 4.23495,-5.03308 6.44412,-7.47054 2.20915,-2.43745 4.47679,-4.81924 6.80292,-7.14534 2.32609,-2.32611 4.70787,-4.59375 7.14531,-6.80293 2.43744,-2.20915 4.92761,-4.35719 7.47053,-6.44409 2.54291,-2.08691 5.13549,-4.11018 7.77773,-6.06981 2.64223,-1.95962 5.33096,-3.85324 8.06618,-5.68085 2.73519,-1.82762 5.51361,-3.58702 8.3352,-5.27823 2.82163,-1.69119 5.68301,-3.31214 8.5842,-4.86285 2.90115,-1.55072 5.83865,-3.02933 8.81244,-4.43582 2.97375,-1.40649 5.98025,-2.73918 9.01947,-3.99806 3.03918,-1.25888 6.10745,-2.44245 9.20477,-3.55068 3.09732,-1.10823 6.22,-2.13981 9.36798,-3.09474 3.14795,-0.95494 6.31745,-1.83206 9.50852,-2.63136 3.19101,-0.79932 6.39972,-1.51985 9.62613,-2.16162 3.22641,-0.64177 6.46661,-1.20401 9.72064,-1.68669 3.254,-0.48269 6.51791,-0.88526 9.79168,-1.20768 3.27378,-0.32245 6.5535,-0.56437 9.83915,-0.72579 3.28564,-0.16141 6.57327,-0.24212 9.86291,-0.24212 3.28964,0 6.57727,0.0807 9.86292,0.24213 3.28567,0.16141 6.56537,0.40333 9.83914,0.72578 3.27377,0.32242 6.53766,0.72499 9.79165,1.20769 3.254,0.48268 6.49421,1.04491 9.72062,1.68668 3.22641,0.64177 6.43512,1.3623 9.62613,2.16162 3.19104,0.7993 6.36053,1.67642 9.50851,2.63135 3.14795,0.95494 6.27057,1.98652 9.36789,3.09475 3.09732,1.10823 6.16559,2.2918 9.2048,3.55068 3.03919,1.25888 6.04569,2.59157 9.01947,3.99806 2.97376,1.40649 5.91123,2.8851 8.81244,4.43582 2.90119,1.55071 5.76258,3.17166 8.58417,4.86287 2.82159,1.69119 5.60001,3.45059 8.33524,5.27821 2.73519,1.82761 5.42395,3.72123 8.06619,5.68084 2.64224,1.95964 5.23483,3.98291 7.77777,6.06982 2.54288,2.0869 5.03305,4.23494 7.47049,6.44411 2.43744,2.20916 4.81921,4.4768 7.14532,6.80291 2.32608,2.3261 4.59378,4.70789 6.80295,7.14534 2.20917,2.43746 4.35718,4.92763 6.44409,7.47054 2.08692,2.54289 4.11017,5.13547 6.06977,7.77773 1.95965,2.64222 3.85327,5.33096 5.6809,8.06617 1.82758,2.73522 3.58698,5.51361 5.27814,8.33522 1.69122,2.82161 3.3122,5.683 4.86292,8.58419 1.55072,2.90116 3.02929,5.83865 4.43579,8.81242 1.40649,2.97378 2.73919,5.98028 3.99804,9.01948 1.25892,3.0392 2.44251,6.10747 3.55079,9.20479 1.10821,3.09732 2.13983,6.21997 3.09472,9.36795 0.9549,3.14795 1.83197,6.31745 2.63123,9.50849 0.79931,3.19101 1.5199,6.39975 2.16168,9.62616 0.64178,3.22641 1.20398,6.46661 1.68671,9.72061 0.48266,3.25403 0.88525,6.51791 1.2077,9.79169 0.32245,3.27377 0.56433,6.55346 0.72577,9.83914 0.16144,3.28567 0.24219,6.5733 0.24219,9.86291 z" />
             </g>
          </g>
       </g>
       <g transform="translate(0,587.92931)" id="g86">
          <g clip-path="url(#clipPath92)" id="g88">
             <g transform="matrix(4.5,0,0,4.5,277.30991,862.48578)" id="g94">
                <path
             id="path96"
             style="fill:#0099ff;fill-opacity:1;fill-rule:nonzero;stroke:none"
             d="m 379.09009,178.49309 c 0,1.36113 -0.0334,2.72143 -0.10019,4.08092 -0.0668,1.35948 -0.16687,2.7165 -0.30029,4.07109 -0.13343,1.35456 -0.30002,2.70504 -0.49976,4.05143 -0.19971,1.34639 -0.43234,2.68708 -0.69788,4.02205 -0.26553,1.33496 -0.56366,2.66262 -0.89441,3.98294 -0.33071,1.32035 -0.69363,2.63178 -1.08874,3.9343 -0.39514,1.3025 -0.82199,2.59454 -1.28055,3.87611 -0.45853,1.28157 -0.94824,2.5511 -1.46915,3.80863 -0.52087,1.2575 -1.07229,2.50148 -1.65423,3.73193 -0.58194,1.23044 -1.19373,2.44586 -1.83536,3.64629 -0.64163,1.20039 -1.31235,2.38433 -2.01208,3.55182 -0.69977,1.16749 -1.42777,2.31709 -2.18396,3.44882 -0.7562,1.13174 -1.53971,2.24424 -2.35053,3.33751 -0.81082,1.09327 -1.64798,2.166 -2.51147,3.21817 -0.8635,1.05217 -1.75226,2.0825 -2.66635,3.09102 -0.91407,1.00854 -1.85233,1.99404 -2.81479,2.95651 -0.96244,0.96246 -1.94794,1.90074 -2.95649,2.81482 -1.00851,0.91407 -2.03884,1.80285 -3.091,2.66635 -1.05218,0.86348 -2.12491,1.70064 -3.2182,2.51144 -1.09329,0.81081 -2.20578,1.59432 -3.33749,2.35053 -1.13175,0.75621 -2.28134,1.48417 -3.44883,2.18393 -1.16748,0.69978 -2.35141,1.37048 -3.55181,2.01211 -1.20041,0.64163 -2.41584,1.25342 -3.64627,1.83536 -1.23044,0.58197 -2.4744,1.13339 -3.73194,1.65427 -1.25751,0.52089 -2.52704,1.0106 -3.80859,1.46916 -1.28156,0.45852 -2.57358,0.88537 -3.8761,1.28049 -1.30252,0.39514 -2.61395,0.75808 -3.9343,1.0888 -1.32034,0.33072 -2.64801,0.62885 -3.98297,0.89438 -1.33499,0.26553 -2.67566,0.49817 -4.02203,0.69788 -1.34641,0.19973 -2.69687,0.3663 -4.05145,0.49969 -1.35459,0.13342 -2.71161,0.23352 -4.07111,0.30032 -1.3595,0.0668 -2.71982,0.10019 -4.08093,0.10019 -1.36115,0 -2.72147,-0.0334 -4.08097,-0.10019 -1.35946,-0.0668 -2.71649,-0.1669 -4.07104,-0.30032 -1.35458,-0.13339 -2.70508,-0.29996 -4.05148,-0.49969 -1.34641,-0.19971 -2.68711,-0.43235 -4.02207,-0.69788 -1.33499,-0.26553 -2.66263,-0.56366 -3.98297,-0.89438 -1.32034,-0.33072 -2.63174,-0.69366 -3.93426,-1.0888 -1.30253,-0.39512 -2.59455,-0.82197 -3.87613,-1.28049 -1.28156,-0.45856 -2.55109,-0.94827 -3.80863,-1.46916 -1.25754,-0.52088 -2.50149,-1.0723 -3.73193,-1.65427 -1.23044,-0.58194 -2.44583,-1.19373 -3.64624,-1.83536 -1.20043,-0.64163 -2.38437,-1.31233 -3.55187,-2.01211 -1.16748,-0.69976 -2.31709,-1.42772 -3.44882,-2.18393 -1.13173,-0.75621 -2.24423,-1.53972 -3.33749,-2.35053 -1.09326,-0.8108 -2.16597,-1.64796 -3.21814,-2.51144 -1.05217,-0.8635 -2.08251,-1.75229 -3.09104,-2.66637 -1.00853,-0.91408 -1.99401,-1.85234 -2.95648,-2.8148 -0.96246,-0.96247 -1.90074,-1.94797 -2.81482,-2.95651 -0.91406,-1.00852 -1.80284,-2.03885 -2.66632,-3.09102 -0.86351,-1.05217 -1.70067,-2.12488 -2.5115,-3.21814 -0.81084,-1.09328 -1.59435,-2.20578 -2.35054,-3.33753 -0.75621,-1.13173 -1.48419,-2.28134 -2.18395,-3.44883 -0.69975,-1.16747 -1.37044,-2.35141 -2.01205,-3.55181 -0.64165,-1.20041 -1.25345,-2.41585 -1.83541,-3.6463 -0.58195,-1.23044 -1.13336,-2.47441 -1.65425,-3.73192 -0.52089,-1.25752 -1.01059,-2.52705 -1.46913,-3.80862 -0.45856,-1.28156 -0.88539,-2.5736 -1.2805,-3.87612 -0.39513,-1.30252 -0.75804,-2.61395 -1.08878,-3.93429 -0.33072,-1.32033 -0.62884,-2.64798 -0.89439,-3.98294 -0.26555,-1.33498 -0.49817,-2.67565 -0.69789,-4.02204 -0.19971,-1.34639 -0.36627,-2.69688 -0.4997,-4.05145 -0.1334,-1.35458 -0.2335,-2.71161 -0.30029,-4.07109 -0.0668,-1.3595 -0.10019,-2.7198 -0.10017,-4.08093 -2e-5,-1.36113 0.0334,-2.72144 0.10016,-4.08092 0.0668,-1.35948 0.1669,-2.71652 0.3003,-4.07109 0.13343,-1.35457 0.29999,-2.70506 0.49968,-4.05145 0.19973,-1.34641 0.43236,-2.68709 0.69791,-4.02207 0.26555,-1.33497 0.56367,-2.66263 0.89439,-3.98295 0.33074,-1.32035 0.69365,-2.63178 1.08876,-3.93428 0.39513,-1.30252 0.82196,-2.59456 1.28052,-3.87613 0.45854,-1.28157 0.94824,-2.5511 1.46913,-3.80863 0.52089,-1.25752 1.0723,-2.50149 1.65425,-3.73195 0.58196,-1.23043 1.19376,-2.44586 1.83539,-3.64627 0.64163,-1.20042 1.31233,-2.38437 2.01209,-3.55183 0.69975,-1.16748 1.42772,-2.31709 2.18393,-3.44882 0.75619,-1.13173 1.5397,-2.24424 2.35054,-3.3375 0.81083,-1.09327 1.64799,-2.16598 2.51149,-3.21814 0.86348,-1.05217 1.75226,-2.08252 2.66633,-3.09104 0.91408,-1.00854 1.85236,-1.99403 2.81482,-2.95649 0.96247,-0.96247 1.94795,-1.90074 2.95648,-2.81481 1.00853,-0.91407 2.03887,-1.80285 3.09104,-2.66634 1.05217,-0.86349 2.12488,-1.70065 3.21814,-2.51147 1.09326,-0.81082 2.20576,-1.59434 3.33749,-2.35054 1.13173,-0.7562 2.28134,-1.48418 3.44884,-2.18394 1.16748,-0.69976 2.35142,-1.37045 3.55185,-2.01208 1.20041,-0.64163 2.4158,-1.25343 3.64624,-1.83538 1.23044,-0.58196 2.47439,-1.13338 3.73193,-1.65426 1.25754,-0.52088 2.52707,-1.0106 3.80866,-1.46915 1.28155,-0.458547 2.57357,-0.885374 3.8761,-1.280485 1.30252,-0.395119 2.61395,-0.758049 3.93429,-1.088776 1.32034,-0.330726 2.64798,-0.62886 3.98297,-0.894401 1.33499,-0.265541 2.67566,-0.498169 4.02207,-0.697884 1.3464,-0.199714 2.69687,-0.366279 4.05145,-0.499695 1.35455,-0.133415 2.71158,-0.23352 4.07104,-0.300315 1.3595,-0.06678 2.71982,-0.100174 4.08097,-0.100174 1.36111,0 2.72143,0.03339 4.0809,0.100181 1.3595,0.06679 2.71652,0.166893 4.07111,0.300308 1.35458,0.133416 2.70504,0.299981 4.05145,0.499695 1.34637,0.199715 2.68704,0.432343 4.02203,0.697884 1.33496,0.265541 2.66263,0.563675 3.98297,0.894401 1.32035,0.330727 2.63178,0.69365 3.9343,1.088768 1.30252,0.395119 2.59454,0.821946 3.87613,1.280493 1.28155,0.45855 2.55108,0.94827 3.80859,1.46915 1.25754,0.52088 2.5015,1.0723 3.73194,1.65426 1.23043,0.58195 2.44589,1.19375 3.6463,1.83538 1.20041,0.64163 2.38433,1.31232 3.55182,2.01208 1.16745,0.69976 2.31704,1.42774 3.44879,2.18394 1.13171,0.7562 2.2442,1.53972 3.33749,2.35054 1.09329,0.81082 2.16602,1.64798 3.2182,2.51147 1.05216,0.86349 2.08252,1.75227 3.09104,2.66634 1.00851,0.91409 1.99401,1.85236 2.95645,2.81482 0.96246,0.96246 1.90072,1.94796 2.81482,2.95648 0.91409,1.00853 1.80285,2.03888 2.66635,3.09104 0.86346,1.05217 1.70062,2.12487 2.51144,3.21813 0.81082,1.09327 1.59433,2.20578 2.35053,3.33751 0.75619,1.13173 1.48419,2.28134 2.18396,3.44882 0.69976,1.16746 1.37048,2.35141 2.01211,3.55183 0.64163,1.20041 1.25339,2.41584 1.83533,3.64627 0.58194,1.23046 1.13336,2.47443 1.65423,3.73195 0.52091,1.25753 1.01062,2.52706 1.46915,3.80863 0.45856,1.28157 0.88541,2.57361 1.28052,3.87613 0.39511,1.3025 0.75806,2.61393 1.08877,3.93428 0.33075,1.32032 0.62888,2.64798 0.89441,3.98295 0.26554,1.33498 0.49817,2.67566 0.69788,4.02205 0.19974,1.34641 0.36633,2.6969 0.49976,4.05147 0.13342,1.35457 0.23352,2.71161 0.30029,4.07109 0.0668,1.35948 0.10019,2.71979 0.10019,4.08092 z" />
            </g>
            <g transform="matrix(4.5,0,0,4.5,575.46191,1108.3257)" id="g98">
               <path id="path100" style="fill:#0099ff;fill-opacity:1;fill-rule:nonzero;stroke:none" d="m 306.02661,97.401031 c 10.38614,-0.415443 19.73364,-4.05059 28.04251,-10.905441 -2.49267,16.20236 -9.9707,22.74562 -20.92346,28.17468" />
            </g>
            <g transform="matrix(4.5,0,0,4.5,116.66666,629.16669)" id="g102">
               <path id="path104" style="fill:#0099ff;fill-opacity:1;fill-rule:nonzero;stroke:none" d="m 467.39719,121.01624 c 13.07815,11.04377 13.07815,11.04377 0,0 z" />
            </g>
            <g transform="matrix(4.5,0,0,4.5,575.46191,1108.3256)" id="g106">
               <path id="path108" style="fill:#0099ff;fill-opacity:1;fill-rule:nonzero;stroke:none" d="m 112.52707,326.04092 c -29.077287,0.0418 -48.912847,-4.50711 -59.5067,-13.64691 28.458008,2.28495 47.36077,1.03861 56.70828,-3.73901" />
            </g>
            <g transform="matrix(4.5,0,0,4.5,575.46191,1108.3257)" id="g110">
               <path id="path112" style="fill:#0099ff;fill-opacity:1;fill-rule:nonzero;stroke:none" d="M 110.04024,308.34341 C 55.616898,291.72559 22.796719,257.86676 11.579697,206.76697 29.228645,226.54166 52.148453,235.84775 80.339127,234.68526 39.942184,220.15398 12.037032,182.38989 -3.3763351,121.39299 17.18821,136.55673 42.322647,145.38495 72.026978,147.87762 28.19751,125.85902 5.7634659,97.816475 4.7248459,63.749954 57.700623,103.18934 122.72107,117.30051 199.78619,106.0835" />
            </g>
            <g transform="matrix(4.5,0,0,4.5,-307.45679,605.17114)" id="g114">
               <path id="path116" style="fill:#454e53;fill-opacity:1;fill-rule:nonzero;stroke:none" d="m 301.01056,26.681044 83.15475,-0.598235 V 109.2397 h 28.27591 l -67.16125,55.03551 -71.78827,-54.43943 h 28.7153 z" />
            </g>
         </g>
      </g>
   </g>
</svg>
